<svg id="Layer_1" data-name="Layer 1" xmlns="http://www.w3.org/2000/svg" viewBox="0 0 512 512"><title>slighty-smile</title><rect width="512" height="512" rx="24.78" ry="24.78" fill="#00a18c"/><path d="M216.73,148.67a42.5,42.5,0,1,1-42.5-42.5,42.5,42.5,0,0,1,42.5,42.5Zm0,0" fill="#fff"/><path d="M377.44,148.67a42.5,42.5,0,1,1-42.5-42.5,42.5,42.5,0,0,1,42.5,42.5Zm0,0" fill="#fff"/><path d="M377.86,333.25c-67.7,68.9-176.63,68.36-243.76-1-9.59-9.92-24.69,5.2-15.11,15.11a190.79,190.79,0,0,0,274,1c9.66-9.84-5.43-24.95-15.1-15.11Zm0,0" fill="#fff"/></svg>